<?xml version="1.0" encoding="UTF-8" standalone="no"?>
<svg width="22px" height="16px" viewBox="0 0 22 16" version="1.1" xmlns="http://www.w3.org/2000/svg" xmlns:xlink="http://www.w3.org/1999/xlink" xmlns:sketch="http://www.bohemiancoding.com/sketch/ns">
    <!-- Generator: Sketch 3.5.2 (25235) - http://www.bohemiancoding.com/sketch -->
    <title>Matrix42 Icons/Black/Assets</title>
    <desc>Created with Sketch.</desc>
    <defs></defs>
    <g id="Icons" stroke="none" stroke-width="1" fill="none" fill-rule="evenodd" sketch:type="MSPage">
        <g id="Matrix42-Icons-Black" sketch:type="MSArtboardGroup" transform="translate(-178.000000, -112.000000)" fill="#000000">
            <g id="Matrix42-Icons/Black/Assets" sketch:type="MSLayerGroup" transform="translate(178.000000, 112.000000)">
                <path d="M2,2 L20,2 L20,0 L2,0 C0.9,0 0,0.9 0,2 L0,14 C0,15.1 0.9,16 2,16 L6,16 L6,14 L2,14 L2,2 L2,2 Z M12,8 L8,8 L8,9.78 C7.39,10.33 7,11.11 7,12 C7,12.89 7.39,13.67 8,14.22 L8,16 L12,16 L12,14.22 C12.61,13.67 13,12.88 13,12 C13,11.12 12.61,10.33 12,9.78 L12,8 L12,8 Z M10,13.5 C9.17,13.5 8.5,12.83 8.5,12 C8.5,11.17 9.17,10.5 10,10.5 C10.83,10.5 11.5,11.17 11.5,12 C11.5,12.83 10.83,13.5 10,13.5 L10,13.5 Z M21,4 L15,4 C14.5,4 14,4.5 14,5 L14,15 C14,15.5 14.5,16 15,16 L21,16 C21.5,16 22,15.5 22,15 L22,5 C22,4.5 21.5,4 21,4 L21,4 Z M20,14 L16,14 L16,6 L20,6 L20,14 L20,14 Z" id="Shape" sketch:type="MSShapeGroup"></path>
            </g>
        </g>
    </g>
</svg>