<?xml version="1.0" encoding="UTF-8" standalone="no"?>
<svg width="20px" height="20px" viewBox="0 0 20 20" version="1.1" xmlns="http://www.w3.org/2000/svg" xmlns:xlink="http://www.w3.org/1999/xlink" xmlns:sketch="http://www.bohemiancoding.com/sketch/ns">
    <!-- Generator: Sketch 3.5.2 (25235) - http://www.bohemiancoding.com/sketch -->
    <title>Matrix42 Icons/Black/Contracts</title>
    <desc>Created with Sketch.</desc>
    <defs></defs>
    <g id="Icons" stroke="none" stroke-width="1" fill="none" fill-rule="evenodd" sketch:type="MSPage">
        <g id="Matrix42-Icons-Black" sketch:type="MSArtboardGroup" transform="translate(-217.000000, -110.000000)" fill="#000000">
            <g id="Matrix42-Icons/Black/Contracts" sketch:type="MSLayerGroup" transform="translate(217.000000, 110.000000)">
                <path d="M9.66666667,17.1669049 C9.66666667,15.9988887 10.178,14.7445379 11.0146667,14.0001943 L4.66666667,14.0001943 L3,14.0001943 C1.34566667,14.0001943 0,15.3458796 0,17.0002359 C0,18.6545922 1.34566667,20.0002775 3,20.0002775 L10.9123333,20.0002775 C10.1593333,19.3639353 9.66666667,18.3325877 9.66666667,17.1669049" id="Fill-1661" sketch:type="MSShapeGroup"></path>
                <path d="M16.0337,2.00002775 L16.0337,1.99936108 C16.0350333,1.99302765 16.0377,1.98736091 16.0390333,1.98102749 C16.0597,1.88535949 16.0890333,1.79302488 16.1253667,1.70435698 C16.1383667,1.6720232 16.1563667,1.64235612 16.1713667,1.61135569 C16.2007,1.55102152 16.2310333,1.49135403 16.2670333,1.43501991 C16.2887,1.40201945 16.3130333,1.37101902 16.3367,1.33968526 C16.3737,1.29035124 16.4120333,1.24235057 16.4540333,1.19734995 C16.4820333,1.16734953 16.5117,1.13934914 16.5417,1.11168209 C16.5860333,1.07068152 16.6330333,1.03201432 16.6817,0.99601382 C16.7143667,0.972013487 16.7477,0.948346492 16.7820333,0.926346187 C16.8347,0.893012391 16.8903667,0.864011988 16.9470333,0.836678276 C16.9820333,0.81967804 17.0167,0.80167779 17.0533667,0.78701092 C17.1170333,0.761677235 17.1843667,0.743010309 17.2517,0.725343398 C17.2847,0.716676611 17.3163667,0.70534312 17.3500333,0.698676361 C17.4527,0.679009421 17.5583667,0.666675917 17.6667,0.666675917 C18.4717,0.666675917 19.1447,1.24035054 19.2997,2.00002775 L16.0337,2.00002775 Z M12.6667,4.0000555 L7.00003333,4.0000555 C6.8157,4.0000555 6.6667,3.8507201 6.6667,3.66671754 C6.6667,3.48271499 6.8157,3.33337958 7.00003333,3.33337958 L12.6667,3.33337958 C12.8510333,3.33337958 13.0000333,3.48271499 13.0000333,3.66671754 C13.0000333,3.8507201 12.8510333,4.0000555 12.6667,4.0000555 L12.6667,4.0000555 Z M12.6667,6.66675917 L7.00003333,6.66675917 C6.8157,6.66675917 6.6667,6.51742376 6.6667,6.33342121 C6.6667,6.14941866 6.8157,6.00008325 7.00003333,6.00008325 L12.6667,6.00008325 C12.8510333,6.00008325 13.0000333,6.14941866 13.0000333,6.33342121 C13.0000333,6.51742376 12.8510333,6.66675917 12.6667,6.66675917 L12.6667,6.66675917 Z M12.6667,9.33346284 L7.00003333,9.33346284 C6.8157,9.33346284 6.6667,9.18412743 6.6667,9.00012488 C6.6667,8.81612233 6.8157,8.66678692 7.00003333,8.66678692 L12.6667,8.66678692 C12.8510333,8.66678692 13.0000333,8.81612233 13.0000333,9.00012488 C13.0000333,9.18412743 12.8510333,9.33346284 12.6667,9.33346284 L12.6667,9.33346284 Z M12.6667,12.0001665 L7.00003333,12.0001665 C6.8157,12.0001665 6.6667,11.8508311 6.6667,11.6668285 C6.6667,11.482826 6.8157,11.3334906 7.00003333,11.3334906 L12.6667,11.3334906 C12.8510333,11.3334906 13.0000333,11.482826 13.0000333,11.6668285 C13.0000333,11.8508311 12.8510333,12.0001665 12.6667,12.0001665 L12.6667,12.0001665 Z M17.6667,0 L6.6667,0 C5.19636667,0 4.00003333,1.19634993 4.00003333,2.66670367 L4.00003333,13.3335183 L12.6667,13.3335183 C12.8510333,13.3335183 13.0000333,13.4828537 13.0000333,13.6668563 C13.0000333,13.8508589 12.8510333,14.0001943 12.6667,14.0001943 C11.4457,14.0001943 10.3333667,15.5095485 10.3333667,17.1669049 C10.3333667,18.7292599 11.3803667,20.0002775 12.6667,20.0002775 L13.0000333,20.0002775 C14.6543667,20.0002775 16.0000333,18.6545922 16.0000333,17.0002359 L16.0000333,2.66670367 L19.6667,2.66670367 C19.8510333,2.66670367 20.0000333,2.51736826 20.0000333,2.33336571 C20.0000333,1.04668119 18.9530333,0 17.6667,0 L17.6667,0 Z" id="Fill-1662" sketch:type="MSShapeGroup"></path>
            </g>
        </g>
    </g>
</svg>