<?xml version="1.0" encoding="UTF-8" standalone="no"?>
<svg width="20px" height="20px" viewBox="0 0 20 20" version="1.1" xmlns="http://www.w3.org/2000/svg" xmlns:xlink="http://www.w3.org/1999/xlink" xmlns:sketch="http://www.bohemiancoding.com/sketch/ns">
    <!-- Generator: Sketch 3.5.2 (25235) - http://www.bohemiancoding.com/sketch -->
    <title>Matrix42 Icons/Black/FullScreen</title>
    <desc>Created with Sketch.</desc>
    <defs></defs>
    <g id="Icons" stroke="none" stroke-width="1" fill="none" fill-rule="evenodd" sketch:type="MSPage">
        <g id="Matrix42-Icons-Black" sketch:type="MSArtboardGroup" transform="translate(-259.000000, -78.000000)" fill="#000000">
            <g id="Matrix42-Icons/Black/FullScreen" sketch:type="MSLayerGroup" transform="translate(259.000000, 78.000000)">
                <path d="M2.85714286,12.8571429 L0,12.8571429 L0,20 L7.14285714,20 L7.14285714,17.1428571 L2.85714286,17.1428571 L2.85714286,12.8571429 L2.85714286,12.8571429 Z M0,7.14285714 L2.85714286,7.14285714 L2.85714286,2.85714286 L7.14285714,2.85714286 L7.14285714,0 L0,0 L0,7.14285714 L0,7.14285714 Z M17.1428571,17.1428571 L12.8571429,17.1428571 L12.8571429,20 L20,20 L20,12.8571429 L17.1428571,12.8571429 L17.1428571,17.1428571 L17.1428571,17.1428571 Z M12.8571429,0 L12.8571429,2.85714286 L17.1428571,2.85714286 L17.1428571,7.14285714 L20,7.14285714 L20,0 L12.8571429,0 L12.8571429,0 Z" id="Shape" sketch:type="MSShapeGroup"></path>
            </g>
        </g>
    </g>
</svg>