<?xml version="1.0" encoding="UTF-8" standalone="no"?>
<svg width="20px" height="20px" viewBox="0 0 20 20" version="1.1" xmlns="http://www.w3.org/2000/svg" xmlns:xlink="http://www.w3.org/1999/xlink" xmlns:sketch="http://www.bohemiancoding.com/sketch/ns">
    <!-- Generator: Sketch 3.5.2 (25235) - http://www.bohemiancoding.com/sketch -->
    <title>Matrix42 Icons/Black/FullScreenBack</title>
    <desc>Created with Sketch.</desc>
    <defs></defs>
    <g id="Icons" stroke="none" stroke-width="1" fill="none" fill-rule="evenodd" sketch:type="MSPage">
        <g id="Matrix42-Icons-Black" sketch:type="MSArtboardGroup" transform="translate(-184.000000, -142.000000)" fill="#000000">
            <g id="Matrix42-Icons/Black/FullScreenBack" sketch:type="MSLayerGroup" transform="translate(184.000000, 142.000000)">
                <path d="M0,15.7142857 L4.28571429,15.7142857 L4.28571429,20 L7.14285714,20 L7.14285714,12.8571429 L0,12.8571429 L0,15.7142857 L0,15.7142857 Z M4.28571429,4.28571429 L0,4.28571429 L0,7.14285714 L7.14285714,7.14285714 L7.14285714,0 L4.28571429,0 L4.28571429,4.28571429 L4.28571429,4.28571429 Z M12.8571429,20 L15.7142857,20 L15.7142857,15.7142857 L20,15.7142857 L20,12.8571429 L12.8571429,12.8571429 L12.8571429,20 L12.8571429,20 Z M15.7142857,4.28571429 L15.7142857,0 L12.8571429,0 L12.8571429,7.14285714 L20,7.14285714 L20,4.28571429 L15.7142857,4.28571429 L15.7142857,4.28571429 Z" id="Shape" sketch:type="MSShapeGroup"></path>
            </g>
        </g>
    </g>
</svg>