<?xml version="1.0" encoding="UTF-8" standalone="no"?>
<svg width="15px" height="15px" viewBox="0 0 15 15" version="1.1" xmlns="http://www.w3.org/2000/svg" xmlns:xlink="http://www.w3.org/1999/xlink" xmlns:sketch="http://www.bohemiancoding.com/sketch/ns">
    <!-- Generator: Sketch 3.5.2 (25235) - http://www.bohemiancoding.com/sketch -->
    <title>Matrix42 Icons/Black/Grid</title>
    <desc>Created with Sketch.</desc>
    <defs></defs>
    <g id="Icons" stroke="none" stroke-width="1" fill="none" fill-rule="evenodd" sketch:type="MSPage">
        <g id="Matrix42-Icons-Black" sketch:type="MSArtboardGroup" transform="translate(-205.000000, -188.000000)" fill="#000000">
            <g id="Matrix42-Icons/Black/Grid" sketch:type="MSLayerGroup" transform="translate(205.000000, 188.000000)">
                <path d="M13.5,0 L1.5,0 C0.675,0 0,0.675 0,1.5 L0,13.5 C0,14.325 0.675,15 1.5,15 L13.5,15 C14.325,15 15,14.325 15,13.5 L15,1.5 C15,0.675 14.325,0 13.5,0 L13.5,0 Z M4.5,13.5 L1.5,13.5 L1.5,10.5 L4.5,10.5 L4.5,13.5 L4.5,13.5 Z M4.5,9 L1.5,9 L1.5,6 L4.5,6 L4.5,9 L4.5,9 Z M4.5,4.5 L1.5,4.5 L1.5,1.5 L4.5,1.5 L4.5,4.5 L4.5,4.5 Z M9,13.5 L6,13.5 L6,10.5 L9,10.5 L9,13.5 L9,13.5 Z M9,9 L6,9 L6,6 L9,6 L9,9 L9,9 Z M9,4.5 L6,4.5 L6,1.5 L9,1.5 L9,4.5 L9,4.5 Z M13.5,13.5 L10.5,13.5 L10.5,10.5 L13.5,10.5 L13.5,13.5 L13.5,13.5 Z M13.5,9 L10.5,9 L10.5,6 L13.5,6 L13.5,9 L13.5,9 Z M13.5,4.5 L10.5,4.5 L10.5,1.5 L13.5,1.5 L13.5,4.5 L13.5,4.5 Z" id="Shape" sketch:type="MSShapeGroup"></path>
            </g>
        </g>
    </g>
</svg>