<?xml version="1.0" encoding="UTF-8" standalone="no"?>
<svg width="15px" height="15px" viewBox="0 0 15 15" version="1.1" xmlns="http://www.w3.org/2000/svg" xmlns:xlink="http://www.w3.org/1999/xlink" xmlns:sketch="http://www.bohemiancoding.com/sketch/ns">
    <!-- Generator: Sketch 3.5.2 (25235) - http://www.bohemiancoding.com/sketch -->
    <title>Matrix42 Icons/Black/GridSettings</title>
    <desc>Created with Sketch.</desc>
    <defs></defs>
    <g id="Icons" stroke="none" stroke-width="1" fill="none" fill-rule="evenodd" sketch:type="MSPage">
        <g id="Matrix42-Icons-Black" sketch:type="MSArtboardGroup" transform="translate(-300.000000, -122.000000)">
            <g id="Matrix42-Icons/Black/GridSettings" sketch:type="MSLayerGroup" transform="translate(300.000000, 122.000000)">
                <path d="M11.7580645,0 L1.30645161,0 C0.587903226,0 0,0.587903226 0,1.30645161 L0,11.7580645 C0,12.4766129 0.587903226,13.0645161 1.30645161,13.0645161 L11.7580645,13.0645161 C12.4766129,13.0645161 13.0645161,12.4766129 13.0645161,11.7580645 L13.0645161,1.30645161 C13.0645161,0.587903226 12.4766129,0 11.7580645,0 L11.7580645,0 Z M3.91935484,11.7580645 L1.30645161,11.7580645 L1.30645161,9.14516129 L3.91935484,9.14516129 L3.91935484,11.7580645 L3.91935484,11.7580645 Z M3.91935484,7.83870968 L1.30645161,7.83870968 L1.30645161,5.22580645 L3.91935484,5.22580645 L3.91935484,7.83870968 L3.91935484,7.83870968 Z M3.91935484,3.91935484 L1.30645161,3.91935484 L1.30645161,1.30645161 L3.91935484,1.30645161 L3.91935484,3.91935484 L3.91935484,3.91935484 Z M7.83870968,11.7580645 L5.22580645,11.7580645 L5.22580645,9.14516129 L7.83870968,9.14516129 L7.83870968,11.7580645 L7.83870968,11.7580645 Z M7.83870968,7.83870968 L5.22580645,7.83870968 L5.22580645,5.22580645 L7.83870968,5.22580645 L7.83870968,7.83870968 L7.83870968,7.83870968 Z M7.83870968,3.91935484 L5.22580645,3.91935484 L5.22580645,1.30645161 L7.83870968,1.30645161 L7.83870968,3.91935484 L7.83870968,3.91935484 Z M11.7580645,11.7580645 L9.14516129,11.7580645 L9.14516129,9.14516129 L11.7580645,9.14516129 L11.7580645,11.7580645 L11.7580645,11.7580645 Z M11.7580645,7.83870968 L9.14516129,7.83870968 L9.14516129,5.22580645 L11.7580645,5.22580645 L11.7580645,7.83870968 L11.7580645,7.83870968 Z M11.7580645,3.91935484 L9.14516129,3.91935484 L9.14516129,1.30645161 L11.7580645,1.30645161 L11.7580645,3.91935484 L11.7580645,3.91935484 Z" id="Shape-Copy" fill="#304651" sketch:type="MSShapeGroup"></path>
                <circle id="Oval-2" fill="#FFFFFF" sketch:type="MSShapeGroup" cx="9.91935484" cy="9.91935484" r="5.08064516"></circle>
                <path d="M12.5174994,10.275 C12.5320155,10.158871 12.5429026,10.0427419 12.5429026,9.91935484 C12.5429026,9.79596774 12.5320155,9.67983871 12.5174994,9.56370968 L13.2832252,8.96491935 C13.3521768,8.91048387 13.370322,8.8125 13.3267736,8.73266129 L12.6009671,7.47701613 C12.5574187,7.39717742 12.4594349,7.36814516 12.3795961,7.39717742 L11.4759671,7.76008065 C11.2872574,7.61491935 11.0840316,7.49516129 10.8626607,7.40443548 L10.7247574,6.44274194 C10.7138703,6.35564516 10.6376607,6.29032258 10.5469349,6.29032258 L9.09532195,6.29032258 C9.00459615,6.29032258 8.92838647,6.35564516 8.91749937,6.44274194 L8.77959615,7.40443548 C8.55822518,7.49516129 8.35499937,7.61854839 8.16628969,7.76008065 L7.26266066,7.39717742 C7.17919292,7.36451613 7.08483808,7.39717742 7.04128969,7.47701613 L6.31548324,8.73266129 C6.26830582,8.8125 6.29008002,8.91048387 6.35903163,8.96491935 L7.12475744,9.56370968 C7.11024131,9.67983871 7.09935421,9.79959677 7.09935421,9.91935484 C7.09935421,10.0391129 7.11024131,10.158871 7.12475744,10.275 L6.35903163,10.8737903 C6.29008002,10.9282258 6.27193486,11.0262097 6.31548324,11.1060484 L7.04128969,12.3616935 C7.08483808,12.4415323 7.18282195,12.4705645 7.26266066,12.4415323 L8.16628969,12.078629 C8.35499937,12.2237903 8.55822518,12.3435484 8.77959615,12.4342742 L8.91749937,13.3959677 C8.92838647,13.4830645 9.00459615,13.5483871 9.09532195,13.5483871 L10.5469349,13.5483871 C10.6376607,13.5483871 10.7138703,13.4830645 10.7247574,13.3959677 L10.8626607,12.4342742 C11.0840316,12.3435484 11.2872574,12.2201613 11.4759671,12.078629 L12.3795961,12.4415323 C12.4630639,12.4741935 12.5574187,12.4415323 12.6009671,12.3616935 L13.3267736,11.1060484 C13.370322,11.0262097 13.3521768,10.9282258 13.2832252,10.8737903 L12.5174994,10.275 L12.5174994,10.275 Z M9.8211284,11.1895161 C9.12072518,11.1895161 8.55096711,10.6197581 8.55096711,9.91935484 C8.55096711,9.21895161 9.12072518,8.64919355 9.8211284,8.64919355 C10.5215316,8.64919355 11.0912897,9.21895161 11.0912897,9.91935484 C11.0912897,10.6197581 10.5215316,11.1895161 9.8211284,11.1895161 L9.8211284,11.1895161 Z" id="Shape" fill="#304651" sketch:type="MSShapeGroup"></path>
            </g>
        </g>
    </g>
</svg>