<?xml version="1.0" encoding="UTF-8" standalone="no"?>
<svg width="20px" height="20px" viewBox="0 0 20 20" version="1.1" xmlns="http://www.w3.org/2000/svg" xmlns:xlink="http://www.w3.org/1999/xlink" xmlns:sketch="http://www.bohemiancoding.com/sketch/ns">
    <!-- Generator: Sketch 3.5.2 (25235) - http://www.bohemiancoding.com/sketch -->
    <title>Matrix42 Icons/Black/Language</title>
    <desc>Created with Sketch.</desc>
    <defs></defs>
    <g id="Icons" stroke="none" stroke-width="1" fill="none" fill-rule="evenodd" sketch:type="MSPage">
        <g id="Matrix42-Icons-Black" sketch:type="MSArtboardGroup" transform="translate(-102.000000, -110.000000)" fill="#000000">
            <g id="Matrix42-Icons/Black/Language" sketch:type="MSLayerGroup" transform="translate(102.000000, 110.000000)">
                <path d="M10,0 C4.48,0 0,4.48 0,10 C0,15.52 4.48,20 10,20 C15.52,20 20,15.52 20,10 C20,4.48 15.52,0 10,0 L10,0 Z M9,17.93 C5.05,17.44 2,14.08 2,10 C2,9.38 2.08,8.79 2.21,8.21 L7,13 L7,14 C7,15.1 7.9,16 9,16 L9,17.93 L9,17.93 Z M15.9,15.39 C15.64,14.58 14.9,14 14,14 L13,14 L13,11 C13,10.45 12.55,10 12,10 L6,10 L6,8 L8,8 C8.55,8 9,7.55 9,7 L9,5 L11,5 C12.1,5 13,4.1 13,3 L13,2.59 C15.93,3.78 18,6.65 18,10 C18,12.08 17.2,13.97 15.9,15.39 L15.9,15.39 Z" id="Shape" sketch:type="MSShapeGroup"></path>
            </g>
        </g>
    </g>
</svg>