<?xml version="1.0" encoding="UTF-8" standalone="no"?>
<svg width="20px" height="20px" viewBox="0 0 20 20" version="1.1" xmlns="http://www.w3.org/2000/svg" xmlns:xlink="http://www.w3.org/1999/xlink" xmlns:sketch="http://www.bohemiancoding.com/sketch/ns">
    <!-- Generator: Sketch 3.5.2 (25235) - http://www.bohemiancoding.com/sketch -->
    <title>Matrix42 Icons/Black/Licenses</title>
    <desc>Created with Sketch.</desc>
    <defs></defs>
    <g id="Icons" stroke="none" stroke-width="1" fill="none" fill-rule="evenodd" sketch:type="MSPage">
        <g id="Matrix42-Icons-Black" sketch:type="MSArtboardGroup" transform="translate(-217.000000, -75.000000)" fill="#000000">
            <g id="Matrix42-Icons/Black/Licenses" sketch:type="MSLayerGroup" transform="translate(217.000000, 75.000000)">
                <path d="M3.25153333,11.0484866 L0.0462,16.4978956 C-0.0208,16.6112305 -0.0144666667,16.7528991 0.0618666667,16.8602339 C0.137866667,16.9669021 0.268866667,17.0195695 0.398866667,16.9935691 L3.44353333,16.384894 L4.35053333,19.1055984 C4.3902,19.2256001 4.49453333,19.3126013 4.61953333,19.3302682 C4.6352,19.3326016 4.6512,19.3336016 4.66653333,19.3336016 C4.7752,19.3336016 4.87786667,19.2806009 4.94086667,19.1899329 L7.87986667,14.9472074 C5.87753333,14.3001984 4.21853333,12.8841788 3.25153333,11.0484866" id="Fill-1345" sketch:type="MSShapeGroup"></path>
                <path d="M19.9524667,16.1620243 L17.1574667,11.5036263 C16.1164667,13.2009832 14.4601333,14.4800009 12.5018,15.0323419 L15.0228,19.1737327 C15.0838,19.2737341 15.1921333,19.3337349 15.3078,19.3337349 C15.3194667,19.3337349 15.3318,19.3330683 15.3438,19.3317349 C15.4724667,19.3177347 15.5811333,19.2304002 15.6231333,19.1080651 L16.5631333,16.3583603 L19.6334667,16.6653646 C19.7611333,16.6766981 19.8808,16.6183639 19.9481333,16.5120291 C20.0158,16.405361 20.0174667,16.2700258 19.9524667,16.1620243" id="Fill-1346" sketch:type="MSShapeGroup"></path>
                <path d="M11.8419667,8.05284507 L12.6949667,10.6125473 L10.4219667,9.18786082 C10.3946333,9.17086058 10.3639667,9.16252713 10.3333,9.16252713 C10.3026333,9.16252713 10.2719667,9.17086058 10.2446333,9.18786082 L7.97163333,10.6125473 L8.82463333,8.05284507 C8.84663333,7.98784417 8.82596667,7.91584317 8.7733,7.8721759 L7.12696667,6.50015686 L8.99996667,6.50015686 C9.0633,6.50015686 9.12063333,6.4644897 9.14896667,6.40782224 L10.3333,4.03945605 L11.5176333,6.40782224 C11.5459667,6.4644897 11.6036333,6.50015686 11.6666333,6.50015686 L13.5396333,6.50015686 L11.8933,7.8721759 C11.8406333,7.91584317 11.8199667,7.98784417 11.8419667,8.05284507 M17.6666333,7.33350175 C17.6666333,3.28977898 14.3769667,6.66675915e-05 10.3333,6.66675915e-05 C6.28963333,6.66675915e-05 2.99996667,3.28977898 2.99996667,7.33350175 C2.99996667,11.3772245 6.28963333,14.6669368 10.3333,14.6669368 C14.3769667,14.6669368 17.6666333,11.3772245 17.6666333,7.33350175" id="Fill-1347" sketch:type="MSShapeGroup"></path>
            </g>
        </g>
    </g>
</svg>