<?xml version="1.0" encoding="UTF-8" standalone="no"?>
<svg width="19px" height="15px" viewBox="0 0 19 15" version="1.1" xmlns="http://www.w3.org/2000/svg" xmlns:xlink="http://www.w3.org/1999/xlink" xmlns:sketch="http://www.bohemiancoding.com/sketch/ns">
    <!-- Generator: Sketch 3.5.2 (25235) - http://www.bohemiancoding.com/sketch -->
    <title>Matrix42 Icons/Black/List</title>
    <desc>Created with Sketch.</desc>
    <defs></defs>
    <g id="Icons" stroke="none" stroke-width="1" fill="none" fill-rule="evenodd" sketch:type="MSPage">
        <g id="Matrix42-Icons-Black" sketch:type="MSArtboardGroup" transform="translate(-133.000000, -187.000000)" fill="#304651">
            <g id="Matrix42-Icons/Black/List" sketch:type="MSLayerGroup" transform="translate(133.000000, 187.000000)">
                <path d="M0,9.64285714 L4.28571429,9.64285714 L4.28571429,5.35714286 L0,5.35714286 L0,9.64285714 L0,9.64285714 Z M0,15 L4.28571429,15 L4.28571429,10.7142857 L0,10.7142857 L0,15 L0,15 Z M0,4.28571429 L4.28571429,4.28571429 L4.28571429,0 L0,0 L0,4.28571429 L0,4.28571429 Z M5.35714286,9.64285714 L18.2142857,9.64285714 L18.2142857,5.35714286 L5.35714286,5.35714286 L5.35714286,9.64285714 L5.35714286,9.64285714 Z M5.35714286,15 L18.2142857,15 L18.2142857,10.7142857 L5.35714286,10.7142857 L5.35714286,15 L5.35714286,15 Z M5.35714286,0 L5.35714286,4.28571429 L18.2142857,4.28571429 L18.2142857,0 L5.35714286,0 L5.35714286,0 Z" id="Shape" sketch:type="MSShapeGroup"></path>
            </g>
        </g>
    </g>
</svg>