<?xml version="1.0" encoding="UTF-8" standalone="no"?>
<svg width="20px" height="18px" viewBox="0 0 20 18" version="1.1" xmlns="http://www.w3.org/2000/svg" xmlns:xlink="http://www.w3.org/1999/xlink" xmlns:sketch="http://www.bohemiancoding.com/sketch/ns">
    <!-- Generator: Sketch 3.5.2 (25235) - http://www.bohemiancoding.com/sketch -->
    <title>Matrix42 Icons/Black/Master Data</title>
    <desc>Created with Sketch.</desc>
    <defs></defs>
    <g id="Icons" stroke="none" stroke-width="1" fill="none" fill-rule="evenodd" sketch:type="MSPage">
        <g id="Matrix42-Icons-Black" sketch:type="MSArtboardGroup" transform="translate(-140.000000, -111.000000)" fill="#000000">
            <g id="Matrix42-Icons/Black/Master-Data" sketch:type="MSLayerGroup" transform="translate(140.000000, 111.000000)">
                <path d="M10,4 L10,0 L0,0 L0,18 L20,18 L20,4 L10,4 L10,4 Z M4,16 L2,16 L2,14 L4,14 L4,16 L4,16 Z M4,12 L2,12 L2,10 L4,10 L4,12 L4,12 Z M4,8 L2,8 L2,6 L4,6 L4,8 L4,8 Z M4,4 L2,4 L2,2 L4,2 L4,4 L4,4 Z M8,16 L6,16 L6,14 L8,14 L8,16 L8,16 Z M8,12 L6,12 L6,10 L8,10 L8,12 L8,12 Z M8,8 L6,8 L6,6 L8,6 L8,8 L8,8 Z M8,4 L6,4 L6,2 L8,2 L8,4 Z M14.5,7 C12.016,7 10,9.016 10,11.5 C10,13.984 12.016,16 14.5,16 C16.984,16 19,13.984 19,11.5 C19,9.016 16.984,7 14.5,7 Z M13.15,11.3875 C12.8395,11.3875 12.5875,11.6395 12.5875,11.95 C12.5875,12.2605 12.8395,12.5125 13.15,12.5125 C13.4605,12.5125 13.7125,12.2605 13.7125,11.95 C13.7125,11.6395 13.4605,11.3875 13.15,11.3875 Z M15.85,11.3875 C15.5395,11.3875 15.2875,11.6395 15.2875,11.95 C15.2875,12.2605 15.5395,12.5125 15.85,12.5125 C16.1605,12.5125 16.4125,12.2605 16.4125,11.95 C16.4125,11.6395 16.1605,11.3875 15.85,11.3875 Z M14.5,15.1 C12.5155,15.1 10.9,13.4845 10.9,11.5 C10.9,11.3695 10.909,11.239 10.9225,11.113 C11.9845,10.6405 12.826,9.772 13.267,8.6965 C14.0815,9.8485 15.4225,10.6 16.939,10.6 C17.29,10.6 17.6275,10.5595 17.9515,10.483 C18.046,10.8025 18.1,11.1445 18.1,11.5 C18.1,13.4845 16.4845,15.1 14.5,15.1 Z" id="Shape" sketch:type="MSShapeGroup"></path>
            </g>
        </g>
    </g>
</svg>