<?xml version="1.0" encoding="UTF-8" standalone="no"?>
<svg width="4px" height="15px" viewBox="0 0 4 15" version="1.1" xmlns="http://www.w3.org/2000/svg" xmlns:xlink="http://www.w3.org/1999/xlink" xmlns:sketch="http://www.bohemiancoding.com/sketch/ns">
    <!-- Generator: Sketch 3.5.2 (25235) - http://www.bohemiancoding.com/sketch -->
    <title>Matrix42 Icons/Black/MoreActions</title>
    <desc>Created with Sketch.</desc>
    <defs></defs>
    <g id="Icons" stroke="none" stroke-width="1" fill="none" fill-rule="evenodd" sketch:type="MSPage">
        <g id="Matrix42-Icons-Black" sketch:type="MSArtboardGroup" transform="translate(-227.000000, -142.000000)" fill="#000000">
            <g id="Matrix42-Icons/Black/MoreActions" sketch:type="MSLayerGroup" transform="translate(227.000000, 142.000000)">
                <path d="M1.875,3.75 C2.90625,3.75 3.75,2.90625 3.75,1.875 C3.75,0.84375 2.90625,0 1.875,0 C0.84375,0 0,0.84375 0,1.875 C0,2.90625 0.84375,3.75 1.875,3.75 L1.875,3.75 Z M1.875,5.625 C0.84375,5.625 0,6.46875 0,7.5 C0,8.53125 0.84375,9.375 1.875,9.375 C2.90625,9.375 3.75,8.53125 3.75,7.5 C3.75,6.46875 2.90625,5.625 1.875,5.625 L1.875,5.625 Z M1.875,11.25 C0.84375,11.25 0,12.09375 0,13.125 C0,14.15625 0.84375,15 1.875,15 C2.90625,15 3.75,14.15625 3.75,13.125 C3.75,12.09375 2.90625,11.25 1.875,11.25 L1.875,11.25 Z" id="Shape" sketch:type="MSShapeGroup"></path>
            </g>
        </g>
    </g>
</svg>