<?xml version="1.0" encoding="UTF-8" standalone="no"?>
<svg width="20px" height="15px" viewBox="0 0 20 15" version="1.1" xmlns="http://www.w3.org/2000/svg" xmlns:xlink="http://www.w3.org/1999/xlink" xmlns:sketch="http://www.bohemiancoding.com/sketch/ns">
    <!-- Generator: Sketch 3.5.2 (25235) - http://www.bohemiancoding.com/sketch -->
    <title>Matrix42 Icons/Black/Preview</title>
    <desc>Created with Sketch.</desc>
    <defs></defs>
    <g id="Icons" stroke="none" stroke-width="1" fill="none" fill-rule="evenodd" sketch:type="MSPage">
        <g id="Matrix42-Icons-Black" sketch:type="MSArtboardGroup" transform="translate(-63.000000, -36.000000)" fill="#304651">
            <g id="Matrix42-Icons/Black/Preview" sketch:type="MSLayerGroup" transform="translate(63.000000, 36.000000)">
                <path d="M10.5882353,7.05882353 L16.7647059,7.05882353 L16.7647059,8.38235294 L10.5882353,8.38235294 L10.5882353,7.05882353 Z M10.5882353,4.85294118 L16.7647059,4.85294118 L16.7647059,6.17647059 L10.5882353,6.17647059 L10.5882353,4.85294118 Z M10.5882353,9.26470588 L16.7647059,9.26470588 L16.7647059,10.5882353 L10.5882353,10.5882353 L10.5882353,9.26470588 Z M17.6470588,0 L1.76470588,0 C0.794117647,0 0,0.794117647 0,1.76470588 L0,13.2352941 C0,14.2058824 0.794117647,15 1.76470588,15 L17.6470588,15 C18.6176471,15 19.4117647,14.2058824 19.4117647,13.2352941 L19.4117647,1.76470588 C19.4117647,0.794117647 18.6176471,0 17.6470588,0 L17.6470588,0 Z M17.6470588,13.2352941 L9.70588235,13.2352941 L9.70588235,1.76470588 L17.6470588,1.76470588 L17.6470588,13.2352941 L17.6470588,13.2352941 Z" id="Preview" sketch:type="MSShapeGroup"></path>
            </g>
        </g>
    </g>
</svg>